/* XPM */
static char * bottom_left_active_xpm[] = {
"27 25 5 1",
" 	c None",
".	c #000000",
"+	c #6F6F6F",
"@	c #4A4A4A",
"#	c #383838",
".                          ",
".                          ",
".                          ",
".                          ",
".                          ",
".                          ",
".                          ",
".                          ",
".                          ",
".                          ",
".                          ",
".                          ",
".                          ",
".                          ",
".                          ",
".                          ",
".                          ",
".                          ",
".                          ",
".                          ",
".                          ",
".                          ",
".+++++++++++++++++++++++++.",
".+@@@@@@@@@@@@@@@@@@@@@@@#.",
"..........................."};
