/* XPM */
static char * stick_prelight = {
"18 8 6 1", 
"@	c #9c228d", 
"#	c #7f2573", 
"+	c #ba1ea5", 
"-	c #ab2099", 
".	c None", 
"=	c #8d2481", 
"..................", 
"++++++++++++++++++", 
"+----------------@", 
"+@@@@@@@@@@@@@@@@#", 
"+@@@@@@@@@@@@@@@@#", 
"@================#", 
"##################", 
"..................", 
};