/* XPM */
static char * top_left_active_xpm[] = {
"5 5 9 1",
" 	c None",
".	c #000000",
"+	c #7B7B7B",
"@	c #ADADAD",
"#	c #A2A2A2",
"$	c #9D9D9D",
"%	c #949494",
"&	c #8F8F8F",
"*	c #424242",
".....",
".+@@@",
".@#$$",
".@$%&",
".@$&*"};
