/* XPM */
static char * top_left_active = {
"5 7 4 1", 
"+	c #090909 s active_shadow_1", 
"%	c #000000", 
"#	c #1C1C1C s active_hilight_1", 
".	c #919191 s active_color_2", 
"%%%%%", 
"%####", 
"%#...", 
"%#...", 
"%#...", 
"%#...", 
"%#...", 
};